<svg width="207" height="109" viewBox="0 0 207 109" fill="none" xmlns="http://www.w3.org/2000/svg">
<path fill-rule="evenodd" clip-rule="evenodd" d="M145.4 107.542C112.207 114.384 90.6715 94.6809 46.8319 94.6809C31.8509 94.6809 -4.3602 103.117 1.24649 50.986C4.42808 21.4038 38.7194 7.97815 70.7653 25.2687C80.1951 28.9565 87.6401 27.8136 95.7233 24.1494C103.807 20.4853 114.203 4.12766 133.796 0.762477C192.759 -9.36446 258.04 84.323 145.4 107.542Z" fill="#FF872A"/>
<path fill-rule="evenodd" clip-rule="evenodd" d="M144.191 40.68C146.501 42.2017 148.822 43.8115 151.481 44.5757C154.14 45.3399 157.265 45.1062 159.313 43.2456C167.577 35.7372 180.884 34.4818 190.406 40.3123C199.928 46.1428 204.86 58.5667 201.929 69.3404C198.998 80.114 188.452 88.3273 177.289 88.5306C171.505 88.6359 166.156 91.4008 160.629 93.1097C155.102 94.8186 148.455 95.2571 144.133 91.412C139.474 87.2679 140.006 78.7284 145.143 75.1943C137.071 75.7991 128.999 76.4039 120.927 77.0087C122.702 77.7286 124.593 78.5422 125.611 80.1653C126.628 81.7884 126.162 84.4438 124.307 84.9261C117.402 86.7223 110.332 83.449 103.704 80.8071C97.0768 78.1652 89.0904 76.225 83.1804 80.2221C69.861 89.2305 52.2647 87.7349 36.401 85.1081C32.5953 84.4779 28.0172 83.0916 27.2259 79.3161C19.9419 80.6873 12.5138 81.2917 5.10399 81.1161C3.29524 81.0733 1.16002 80.7885 0.314706 79.1888C-0.780579 77.1162 1.18559 74.7646 3.10041 73.4122C8.94779 69.2822 16.0869 67.0099 23.2458 67.0002C25.2849 66.9975 26.6463 64.8665 27.1654 62.8946C27.6845 60.9227 27.83 58.7284 29.1541 57.1776C24.6514 56.5018 19.8813 57.8763 16.4288 60.8445C15.788 61.3954 14.7063 60.8423 14.4373 60.0412C14.1684 59.2401 14.4455 58.3687 14.73 57.573C16.323 53.1174 18.3204 48.5905 21.941 45.544C25.5617 42.4975 31.2186 41.3986 35.0354 44.1954C36.2327 45.0728 38.2657 46.199 41.1344 47.574C44.0756 47.1293 46.2626 46.7752 47.6953 46.5118C52.0343 45.7142 56.0573 43.7437 59.9904 41.7453C73.6957 34.7818 87.7481 27.029 103.115 26.5916C117.815 26.1732 131.908 32.5917 144.191 40.68ZM159.743 52.752L161.122 56.2252C161.189 56.3954 161.262 56.5734 161.405 56.6886C161.577 56.8283 161.814 56.847 162.034 56.8787C163.72 57.1214 165.04 58.4012 166.235 59.6148C167.765 61.1693 169.295 62.7239 170.826 64.2784C171.284 64.7442 172.046 64.2405 172.485 63.7562C173.472 62.6675 174.477 61.5507 175.046 60.1963C175.616 58.8419 175.678 57.1808 174.829 55.9817C174.324 55.2691 173.555 54.7886 172.768 54.412C171.468 53.7904 170.057 53.4005 168.622 53.2661C167.223 53.135 165.814 53.2452 164.409 53.2348C162.843 53.2232 161.278 53.0613 159.743 52.752Z" fill="white"/>
<path fill-rule="evenodd" clip-rule="evenodd" d="M27.2259 79.3159C19.9419 80.6871 12.5138 81.2916 5.10396 81.116C2.97157 78.0085 26.0467 72.2829 26.8834 76.0574C27.545 79.0421 27.5753 80.9831 27.2259 79.3159Z" fill="#E7EAEE"/>
<path fill-rule="evenodd" clip-rule="evenodd" d="M138.974 69.2485C139.753 69.1653 142.846 68.4071 146.094 68.7586C147.839 67.8625 156.203 68.5664 161.196 69.5445C164.4 70.1724 172.523 70.5896 175.472 72.094C180.592 74.7056 180.709 76.32 179.939 76.6658C177.751 77.648 175.114 78.1322 173.697 78.158C171.146 78.2045 166.013 75.8462 160.383 74.3689C157.869 73.7091 156.021 73.1488 154.565 72.6052L154.803 72.501C151.653 73.9228 148.395 74.1494 145.143 75.1943C137.071 75.7991 128.999 76.4039 120.927 77.0087C122.703 77.7286 95.9901 68.0026 103.705 66.5836C104.181 66.4961 104.705 66.443 105.273 66.4192C112.499 66.1163 126.854 70.5438 138.974 69.2485Z" fill="#E7EAEE"/>
<path fill-rule="evenodd" clip-rule="evenodd" d="M66.885 57.2423C66.9834 57.4182 66.9089 57.6522 66.7611 57.7892C66.6132 57.9263 66.4101 57.9854 66.2119 58.0226C64.7527 58.2966 63.1583 57.5006 62.5003 56.1695C62.427 56.0211 62.363 55.8582 62.3854 55.6942C62.4078 55.5302 62.5456 55.3714 62.7108 55.3813C63.1356 55.8499 63.5666 56.3239 64.0955 56.6708C64.6244 57.0176 65.271 57.229 65.8932 57.1148C66.2462 57.0499 66.7096 56.9291 66.885 57.2423V57.2423Z" fill="#00160A"/>
<path fill-rule="evenodd" clip-rule="evenodd" d="M67.8424 75.3989C67.8629 74.988 68.3778 74.8163 68.789 74.801C70.631 74.7327 72.3465 75.6357 74.0478 76.3451C75.7491 77.0546 77.7303 77.5779 79.3918 76.7796C79.7387 76.6129 80.1021 76.3853 80.4785 76.4658C79.8542 77.6763 78.3624 78.2259 77.0025 78.1513C75.6425 78.0768 74.3681 77.5016 73.1142 76.9698C71.8603 76.4381 70.5412 75.9322 69.1813 76.0081C68.9024 76.0237 68.6168 76.0631 68.3479 75.9872C68.0791 75.9112 67.8284 75.6779 67.8424 75.3989Z" fill="#00160A"/>
<path fill-rule="evenodd" clip-rule="evenodd" d="M71.0663 78.8466C69.7956 78.4759 68.3101 78.6614 67.2664 77.8473C67.1388 77.7478 67.0129 77.6173 67.008 77.4556C67.001 77.229 67.2452 77.0632 67.4719 77.0574C67.6985 77.0515 67.9112 77.1549 68.1241 77.2331C68.9011 77.5185 69.7565 77.4802 70.5676 77.6455C71.7845 77.8935 72.856 78.5873 74.0022 79.0653C75.1483 79.5434 76.523 79.7881 77.5903 79.1532C78.0208 78.897 78.5868 78.5146 78.9437 78.8662C77.7818 80.1896 75.8147 80.7411 74.1341 80.2147C73.0639 79.8794 72.1429 79.1607 71.0663 78.8466Z" fill="#00160A"/>
<path fill-rule="evenodd" clip-rule="evenodd" d="M34.4481 65.447C34.2439 65.1858 34.2456 64.8067 34.376 64.5018C34.5063 64.1969 34.7456 63.9528 34.993 63.7318C36.1672 62.683 37.7922 61.973 39.3165 62.3672C40.4589 62.6626 41.3627 63.5191 42.1626 64.3866C42.505 64.758 42.8584 65.29 42.602 65.7253C42.3282 66.1902 41.6408 66.0919 41.12 65.9507C39.5037 65.5124 37.7906 65.2542 36.1571 65.6239C35.5646 65.758 34.8224 65.9257 34.4481 65.447V65.447Z" fill="#00160A"/>
<path fill-rule="evenodd" clip-rule="evenodd" d="M60.9193 81.1946C61.1445 81.3307 61.1134 81.6943 60.9257 81.8788C60.7381 82.0633 60.4615 82.1162 60.2021 82.1607C58.748 82.4101 57.2938 82.6595 55.8396 82.9089C55.536 82.961 55.1967 83.0058 54.9435 82.8303C54.6904 82.6549 54.6831 82.167 54.9845 82.1034C56.8076 81.7185 58.6452 81.4021 60.492 81.155C60.6367 81.1356 60.7943 81.1191 60.9193 81.1946V81.1946Z" fill="#00160A"/>
<path fill-rule="evenodd" clip-rule="evenodd" d="M57.2093 66.0009C56.8894 66.1196 56.5361 65.8106 56.4929 65.4722C56.4498 65.1338 56.6248 64.8063 56.8275 64.5318C57.7707 63.2546 59.4516 62.6006 61.0271 62.7971C62.6027 62.9936 64.0338 63.9917 64.8614 65.3467C64.9891 65.5557 65.1075 65.7959 65.059 66.0361C65.0066 66.2961 64.7635 66.4845 64.5062 66.5489C64.2489 66.6132 63.978 66.5763 63.7166 66.5312C62.6287 66.343 61.568 66.0173 60.4792 65.8341C59.3905 65.6509 58.2445 65.6169 57.2093 66.0009Z" fill="#00160A"/>
<path fill-rule="evenodd" clip-rule="evenodd" d="M36.648 57.2612C36.7717 56.8987 37.2958 56.9884 37.6716 57.0629C38.8427 57.2953 39.9881 56.6424 41.0041 56.0153C41.1397 55.9316 41.3202 56.0906 41.3173 56.25C41.3143 56.4093 41.1995 56.5422 41.0874 56.6555C40.0746 57.6791 38.5599 58.3794 37.1905 57.9339C36.8844 57.8343 36.544 57.5658 36.648 57.2612Z" fill="#00160A"/>
<path fill-rule="evenodd" clip-rule="evenodd" d="M77.3264 63.4651C76.9313 63.3898 76.7264 62.9103 76.8003 62.5149C76.8743 62.1196 77.1428 61.7934 77.3961 61.481C78.3529 60.3009 79.2249 59.0459 79.9121 57.6909C80.5031 56.5256 80.9559 55.2898 81.6204 54.1648C83.5218 50.9459 87.2097 48.8649 90.9481 48.9014C89.45 47.8291 87.6791 47.1948 85.8852 46.7751C80.3364 45.4768 74.3411 46.1812 69.2443 48.7303C68.4388 49.1332 67.653 49.5813 66.813 49.9062C66.4254 50.056 65.9968 50.1798 65.5999 50.057C65.2029 49.9342 64.8914 49.4667 65.076 49.0945C65.1824 48.8799 65.4117 48.76 65.6265 48.654C67.7978 47.5825 69.9783 46.5073 72.2799 45.7552C77.4287 44.0725 83.1176 44.0895 88.2564 45.8028C89.9806 46.3777 91.7825 47.2709 92.5292 48.9281C92.6437 49.1823 92.6542 49.5887 92.3785 49.6303C89.4174 50.0765 86.4042 51.1013 84.3604 53.2899C81.7132 56.1245 81.0721 60.4768 78.2014 63.0847C77.957 63.3068 77.6508 63.5269 77.3264 63.4651V63.4651Z" fill="#00160A"/>
<path fill-rule="evenodd" clip-rule="evenodd" d="M120.927 77.0087C122.702 77.7286 124.593 78.5422 125.611 80.1653C126.628 81.7884 126.162 84.4438 124.307 84.9261C117.402 86.7223 110.332 83.449 103.704 80.8071C97.0768 78.1652 89.0904 76.225 83.1804 80.2221C69.861 89.2305 52.2647 87.7349 36.401 85.1081C32.5953 84.4779 28.0172 83.0916 27.2259 79.3161C19.9419 80.6873 12.5138 81.2917 5.10399 81.1161C3.29524 81.0733 1.16002 80.7885 0.314706 79.1888C-0.780579 77.1162 1.18559 74.7646 3.10041 73.4122C8.94779 69.2822 16.0869 67.0099 23.2458 67.0002C25.2849 66.9975 26.6463 64.8665 27.1654 62.8946C27.6845 60.9227 27.83 58.7284 29.1541 57.1776C24.6514 56.5018 19.8813 57.8763 16.4288 60.8445C15.788 61.3954 14.7063 60.8423 14.4373 60.0412C14.1684 59.2401 14.4455 58.3687 14.73 57.573C16.323 53.1174 18.3204 48.5905 21.941 45.544C25.5617 42.4975 29.5691 41.3412 35.0106 43.8192C36.4356 44.4681 38.4709 45.6211 41.1164 47.2783C44.0401 47.0361 46.2331 46.7806 47.6953 46.5118C52.0343 45.7142 56.0573 43.7437 59.9904 41.7453C73.6957 34.7818 87.7481 27.029 103.115 26.5916C117.815 26.1732 131.908 32.5917 144.191 40.68C146.501 42.2017 148.822 43.8115 151.481 44.5757C154.14 45.3399 157.265 45.1062 159.313 43.2456C167.577 35.7372 180.884 34.4818 190.406 40.3123C199.928 46.1428 204.86 58.5667 201.929 69.3404C198.998 80.114 188.452 88.3273 177.289 88.5306C171.505 88.6359 166.156 91.4008 160.629 93.1097C155.102 94.8186 148.455 95.2571 144.133 91.412C139.474 87.2679 140.006 78.7284 145.143 75.1943C137.071 75.7991 128.999 76.4039 120.927 77.0087ZM167.652 62.1169C163.578 58.0195 157.501 56.016 151.789 56.8875C154.555 56.0282 157.518 55.8117 160.379 56.2598C152.269 44.5482 139.181 37.2331 125.841 32.2355C119.358 29.8069 112.607 27.8105 105.685 27.6577C96.6751 27.4588 87.8939 30.3873 79.5714 33.8458C70.4371 37.6417 61.6013 42.1129 52.7756 46.5794C55.4987 46.4402 58.2588 47.6368 60.0187 49.7196C52.6263 46.6712 43.87 47.1413 36.8464 50.9634C36.88 49.567 37.9959 48.2727 39.3721 48.0338C35.3531 44.4926 29.1787 43.6331 24.3453 45.9419C19.5119 48.2508 16.3003 53.5938 16.5292 58.9455C20.6111 55.5696 26.4985 54.5257 31.4922 56.2923C28.5199 61.252 26.9854 67.0623 27.1213 72.8429C28.6832 72.1849 30.6078 72.4943 31.8848 73.6087C30.4581 73.7622 29.0314 73.9156 27.6047 74.0691C27.665 74.7201 27.7252 75.3711 27.7855 76.0221C29.2952 75.7996 30.8048 75.577 32.3145 75.3545C31.343 76.4721 29.973 77.236 28.5115 77.4749C28.328 79.3346 29.6189 81.0895 31.2385 82.0217C32.8581 82.9538 34.7602 83.2317 36.6107 83.4924C41.2228 84.1422 45.8349 84.7919 50.4471 85.4417C49.3774 84.2353 49.2023 82.293 48.504 80.9501C47.5995 79.2107 46.2936 78.5024 45.6388 76.1949C45.4129 75.3988 44.8923 74.2779 45.6209 73.7717C45.9269 73.5591 46.3255 73.551 46.6981 73.5506C48.2206 73.549 49.7431 73.5473 51.2656 73.5457C51.7575 73.5452 52.2721 73.55 52.7069 73.78C54.0246 74.4769 53.6084 76.5355 52.6244 77.6551C51.6403 78.7748 50.2332 79.669 49.897 81.1213C49.5518 82.6131 50.5562 84.1596 51.8901 84.9115C53.2239 85.6635 54.8111 85.791 56.3414 85.8433C59.5669 85.9535 62.8011 85.8041 66.0026 85.3967C74.0622 84.3714 82.6487 81.0871 86.3896 73.875C86.1633 75.693 85.2133 77.4108 83.7938 78.5688C89.6658 76.4058 96.3154 76.4301 102.172 78.6358C107.725 80.7276 112.995 84.7672 118.885 84.0422C118.632 83.8375 118.534 83.4838 118.282 83.2791C117.595 82.7218 116.753 82.3136 116.066 81.7564C118.166 82.5245 120.266 83.2927 122.366 84.0609C122.128 83.7116 122.366 83.3591 121.922 82.8249C121.478 82.2907 120.507 81.3376 119.936 80.4998C121.526 80.9626 122.92 82.0663 123.735 83.5082C124.415 83.342 125.094 83.1757 125.774 83.0094C122.323 78.3519 117.553 74.6834 112.166 72.5441C109.552 71.5063 106.312 70.2641 105.985 67.4709C111.86 73.1444 120.279 75.5646 128.444 75.7374C136.61 75.9102 144.666 74.0549 152.622 72.2107C150.801 71.29 149.159 70.0165 147.813 68.4816C156.749 73.4882 166.748 76.5884 176.948 77.5158C176.37 76.5351 175.791 75.5543 175.213 74.5736C176.478 74.6096 177.661 75.5693 177.956 76.8003C178.591 76.5504 179.225 76.3006 179.86 76.0507C178.977 75.1853 178.094 74.32 177.212 73.4547C178.632 73.1124 180.225 74.2074 180.414 75.6556C181.008 75.3466 181.498 74.842 181.79 74.2393C180.735 73.4404 179.679 72.6414 178.624 71.8424C180.224 71.8098 181.829 72.3452 183.09 73.3313C181.599 69.7061 176.553 69.6197 173.202 67.5867C170.973 66.2345 169.49 63.9658 167.652 62.1169ZM160.064 51.7011C162.058 52.1844 164.145 51.8101 166.197 51.8162C168.322 51.8225 170.439 52.2441 172.43 52.9867C173.66 53.445 174.888 54.0608 175.687 55.1012C176.954 56.7504 176.844 59.1427 175.96 61.0252C175.076 62.9077 173.547 64.3958 172.05 65.8393C175.193 67.2413 178.335 68.6433 181.478 70.0453C182.366 70.4414 183.326 70.9063 183.732 71.7897C184.434 73.3175 183.071 74.9933 181.671 75.9245C177.304 78.8292 171.364 79.1855 166.681 76.8236C163.677 75.3084 160.346 74.5857 157.056 73.8772C155.26 73.4904 153.389 73.1039 151.605 73.5415C150.339 73.8521 149.145 74.5721 147.842 74.5278C146.678 74.4882 145.772 75.4937 145.09 76.438C142.845 79.5453 140.994 83.5161 142.309 87.1172C143.212 89.5932 145.503 91.3769 147.999 92.2232C150.495 93.0696 153.193 93.0936 155.823 92.9261C159.116 92.7165 162.47 92.1942 165.361 90.6052C167.243 89.5705 168.928 88.0878 171.01 87.56C173.508 86.9268 176.141 87.7765 178.711 87.5888C180.758 87.4393 182.695 86.638 184.57 85.8016C189.148 83.7584 193.726 81.3462 196.974 77.5267C201.816 71.8312 202.967 63.4852 200.654 56.3764C198.34 49.2677 192.873 43.4229 186.329 39.8079C184.53 38.814 182.636 37.9695 180.641 37.4735C175.853 36.2827 170.612 37.2204 166.427 39.8348C164.273 41.1809 162.401 42.9349 160.29 44.348C158.179 45.7612 155.698 46.8497 153.169 46.6028C155.118 48.7561 157.242 51.017 160.064 51.7011ZM9.35226 71.1717C6.41923 72.3152 3.48446 73.8325 1.62558 76.3731C2.48086 75.9018 3.55482 75.8495 4.45185 76.2355C3.79794 76.5586 3.14403 76.8817 2.49011 77.2048C2.12379 77.3858 1.74512 77.5765 1.4907 77.8963C1.23628 78.216 1.14427 78.7041 1.39059 79.0301C1.6369 79.3561 2.25986 79.3262 2.37901 78.9353C2.8162 77.5013 4.50446 76.5847 5.94524 76.9991C4.86311 77.6155 3.6815 78.3582 3.38207 79.567C3.54388 80.1117 4.34134 80.2012 4.81003 79.8801C5.27873 79.559 5.51263 79.0026 5.78217 78.5024C6.05172 78.0023 6.4432 77.4903 7.00537 77.408C7.12401 77.3906 7.25962 77.3997 7.342 77.4868C7.48562 77.6387 7.36706 77.887 7.23194 78.0464C6.92579 78.4077 6.53507 78.7241 6.38455 79.1731C6.23403 79.6221 6.50302 80.2498 6.9757 80.221C13.6127 79.8156 20.2373 79.2055 26.8367 78.3918C27.0752 77.8753 26.3506 77.4558 25.7869 77.3793C24.356 77.1853 22.884 77.2998 21.5003 77.7129C21.7559 76.8624 22.6148 76.3056 23.4884 76.1461C24.362 75.9866 25.2585 76.1506 26.1313 76.3144C26.1381 75.7014 26.0237 75.0873 25.7966 74.5179C24.4088 74.4888 23.0333 74.0253 21.9111 73.2086C22.8491 72.8577 23.9389 72.9376 24.8157 73.4217C25.2344 73.6529 25.5464 72.9763 25.5533 72.4981C25.5757 70.9439 25.5982 69.3898 25.6207 67.8356C20.0614 68.018 14.5346 69.1514 9.35226 71.1717ZM162.034 56.8787C163.72 57.1214 165.04 58.4012 166.235 59.6148C167.765 61.1693 169.295 62.7239 170.826 64.2784C171.284 64.7442 172.046 64.2405 172.485 63.7562C173.472 62.6675 174.477 61.5507 175.046 60.1963C175.616 58.8419 175.678 57.1808 174.829 55.9817C174.324 55.2691 173.555 54.7886 172.768 54.412C171.468 53.7904 170.057 53.4005 168.622 53.2661C167.223 53.135 165.814 53.2452 164.409 53.2348C162.843 53.2232 161.278 53.0613 159.743 52.752C160.202 53.9097 160.662 55.0675 161.122 56.2252C161.189 56.3954 161.262 56.5734 161.405 56.6886C161.577 56.8283 161.814 56.847 162.034 56.8787Z" fill="#00160A"/>
</svg>
