<svg width="20" height="20" viewBox="0 0 20 20" fill="none" xmlns="http://www.w3.org/2000/svg">
<path fill-rule="evenodd" clip-rule="evenodd" d="M9.75195 0.75C7.7158 0.75 7.52329 4.29652 6.31107 5.54957C5.09884 6.80263 1.33015 5.36992 0.80654 7.59403C0.284028 9.81927 3.67431 10.5743 4.09232 12.4834C4.51253 14.3926 2.44118 17.0749 4.21112 18.4098C5.98106 19.7436 7.8863 16.7247 9.75195 16.7247C11.6176 16.7247 13.5228 19.7436 15.2928 18.4098C17.0627 17.0749 14.9925 14.3926 15.4116 12.4834C15.8307 10.5743 19.2199 9.81927 18.6974 7.59403C18.1748 5.36992 14.4051 6.80263 13.1939 5.54957C11.9817 4.29652 11.7881 0.75 9.75195 0.75Z" fill="#7A3907" stroke="#7A3907" stroke-width="1.5" stroke-linecap="round" stroke-linejoin="round"/>
</svg>
